<?xml version="1.0" standalone="no"?><!DOCTYPE svg PUBLIC "-//W3C//DTD SVG 1.1//EN" "http://www.w3.org/Graphics/SVG/1.1/DTD/svg11.dtd"><svg t="1663603724859" class="icon" viewBox="0 0 1038 1024" version="1.1" xmlns="http://www.w3.org/2000/svg" p-id="1648" xmlns:xlink="http://www.w3.org/1999/xlink" width="202.734375" height="200"><path d="M195.112592 334.966023C252.418388 235.363091 346.563624 172.5996 414.78481 154.17988c128.938041-34.792805 356.11459-6.822119 415.467022 214.214524 22.512991 85.276482 16.373085 160.319787-19.101932 221.718854-35.475017 59.352432-92.098601 103.013991-158.273151 122.115923-55.941372 15.008661-209.439041 19.784144-250.371752-135.077948-36.157229-137.124584 88.687542-194.43038 94.145236-197.159228 13.644237-6.139907 20.466356-21.830779 14.326449-36.157228s-21.830779-20.466356-36.157228-14.326449c-60.034644 25.924051-163.730846 114.611592-124.84477 261.287142 36.83944 138.489007 151.451033 182.832778 246.278481 182.832778 23.877415 0 47.75483-2.728847 70.950033-8.868754 57.988008-15.690873 142.582278-63.445703 191.01932-147.357762 42.979347-74.361093 51.165889-163.048634 24.559627-263.333777-68.903398-259.240506-332.237175-292.668887-481.641572-252.418388C322.003997 122.798135 212.8501 194.43038 148.039973 306.995336 88.687542 410.009327 75.043304 528.714191 107.789474 652.194537c3.411059 15.008661 18.41972 23.877415 32.746169 20.466356 15.008661-3.411059 23.877415-18.41972 20.466356-32.746169 0-0.682212 0-1.364424-0.682212-2.046636-29.33511-110.518321-17.737508-212.167888 34.792805-302.902065z" fill="#6f9918" p-id="1649"></path><path d="M470.726183 498.014657a89.369753 89.369753 0 1 0 178.739507 0 89.369753 89.369753 0 1 0-178.739507 0Z" fill="#6f9918" p-id="1650"></path><path d="M173.281812 94.145237c8.868754 2.728847 16.373085 6.822119 23.877415 11.597601 5.457695 6.822119 10.233178 15.008661 12.962025 23.877415 2.046636 4.093271 6.822119 6.139907 10.91539 4.093271 2.046636-0.682212 3.411059-2.728847 4.093271-4.093271 2.728847-8.186542 6.822119-15.008661 11.597602-21.830779 8.186542-6.139907 16.373085-10.233178 25.924051-12.962026 4.093271-1.364424 6.139907-5.457695 4.775483-9.550966-0.682212-2.046636-2.728847-4.093271-4.775483-4.775483-8.868754-2.728847-17.737508-7.50433-25.241839-12.962025-5.457695-6.822119-9.550966-14.326449-12.279814-22.512991-2.046636-4.093271-6.822119-6.139907-10.915389-4.093271-1.364424 0-2.728847 1.364424-4.093272 3.411059-2.728847 8.186542-6.822119 16.373085-12.279813 23.195203-7.50433 5.457695-15.690873 9.550966-23.877415 12.279813-4.093271 1.364424-6.139907 5.457695-4.775483 9.550966 0 2.046636 2.046636 4.093271 4.093271 4.775484zM912.117255 266.744837c7.50433 2.046636 15.008661 6.139907 21.148568 10.233178 4.775483 6.139907 8.868754 12.962025 11.597601 20.466355 2.046636 4.093271 6.139907 5.457695 10.233178 3.41106 1.364424-0.682212 2.728847-2.046636 3.41106-3.41106 2.046636-6.822119 6.139907-13.644237 10.915389-19.101932 6.822119-5.457695 15.008661-8.868754 23.195203-11.597601 3.411059-1.364424 5.457695-4.775483 4.093272-8.868754-0.682212-2.046636-2.046636-3.411059-4.093272-4.093272-8.186542-2.728847-15.690873-6.139907-22.512991-10.915389-4.775483-6.139907-8.868754-12.279813-10.91539-19.784144-2.046636-4.093271-6.139907-5.457695-10.233177-3.411059-1.364424 0.682212-2.728847 2.046636-3.41106 3.411059-2.728847 7.50433-6.139907 14.326449-11.597601 20.466356-6.822119 4.775483-13.644237 8.186542-21.148568 10.915389-3.411059 1.364424-5.457695 5.457695-4.093271 8.868754 0.682212 1.364424 2.046636 2.728847 3.411059 3.41106zM342.470353 908.023984c-8.186542-2.728847-15.690873-6.139907-22.512991-10.91539-4.775483-6.139907-8.868754-12.962025-10.91539-19.784144-2.046636-4.093271-6.139907-5.457695-10.233178-3.411059-1.364424 0.682212-2.728847 2.046636-3.411059 3.411059-2.728847 7.50433-6.139907 14.326449-11.597602 20.466356-6.822119 4.775483-13.644237 8.186542-21.830779 10.91539-3.411059 1.364424-5.457695 4.775483-4.093271 8.868754 0.682212 2.046636 2.046636 3.411059 4.093271 4.093271 7.50433 2.046636 15.008661 5.457695 21.148567 10.233178 4.775483 6.139907 8.868754 12.962025 11.597602 20.466356 2.046636 4.093271 6.139907 5.457695 10.233178 3.411059 1.364424-0.682212 2.728847-2.046636 3.411059-3.411059 2.046636-6.822119 6.139907-13.644237 10.233178-19.101932 6.822119-5.457695 15.008661-8.868754 23.195203-11.597602 5.457695 0 9.550966-1.364424 9.550966-6.822118 1.364424-5.457695-3.411059-10.233178-8.868754-6.822119zM195.794803 447.530979c-6.139907 0-10.91539 4.775483-10.915389 10.91539 0 6.139907 4.775483 10.91539 10.915389 10.91539 6.139907 0 10.91539-4.775483 10.91539-10.91539 0.682212-6.139907-4.093271-10.91539-10.91539-10.91539zM106.42505 822.06529c-12.279813 0-22.512991 10.233178-22.512991 22.512991 0 12.279813 10.233178 22.512991 22.512991 22.512991 12.279813 0 22.512991-10.233178 22.512991-22.512991 0-12.279813-10.233178-22.512991-22.512991-22.512991zM708.818121 928.49034c-7.50433 0-14.326449 6.139907-14.326449 13.644237s6.139907 14.326449 13.644237 14.326449 14.326449-6.139907 14.326449-13.644237c0-8.186542-6.139907-14.326449-13.644237-14.326449zM822.747502 132.349101c7.50433 2.046636 15.008661 5.457695 21.148567 10.233177 4.775483 6.139907 8.868754 12.962025 11.597602 20.466356 2.046636 4.093271 6.139907 5.457695 10.233178 3.41106 1.364424-0.682212 2.728847-2.046636 3.411059-3.41106 2.046636-6.822119 6.139907-13.644237 10.91539-19.101932 6.822119-5.457695 15.008661-8.868754 23.195203-11.597601 3.411059-1.364424 5.457695-4.775483 4.093271-8.868755-0.682212-2.046636-2.046636-3.411059-4.093271-4.093271-8.186542-2.728847-15.690873-6.139907-22.512991-10.915389-4.775483-6.139907-8.868754-12.279813-10.91539-19.784144-2.046636-4.093271-6.139907-5.457695-10.233178-3.41106-1.364424 0.682212-2.728847 2.046636-3.411059 3.41106-2.728847 7.50433-6.139907 14.326449-11.597602 20.466355-6.822119 4.775483-13.644237 8.186542-21.830779 10.91539-3.411059 1.364424-4.775483 5.457695-3.41106 8.868754 0.682212 1.364424 2.046636 2.728847 3.41106 3.41106zM476.183877 989.889407c-9.550966 0-17.055296 7.50433-17.055296 17.055297s7.50433 17.055296 17.055296 17.055296 17.055296-7.50433 17.055297-17.055296-7.50433-17.055296-17.055297-17.055297zM61.399067 229.223185c6.139907 0 11.597602-4.775483 11.597602-10.91539 0-6.139907-4.775483-11.597602-10.91539-11.597602-6.139907 0-11.597602 4.775483-11.597601 10.91539v0.682212c0 6.139907 4.775483 10.91539 10.915389 10.91539zM689.033977 33.428381c9.550966 0 17.055296-7.50433 17.055297-17.055296S698.584943 0 689.033977 0s-17.055296 7.50433-17.055296 17.055296c0 8.868754 7.50433 16.373085 17.055296 16.373085zM964.647568 902.566289c-8.186542-2.728847-15.690873-6.139907-22.512991-10.91539-4.775483-6.139907-8.868754-12.962025-10.91539-19.784144-2.046636-4.093271-6.139907-5.457695-10.233178-3.411059-1.364424 0.682212-2.728847 2.046636-3.411059 3.411059-2.728847 7.50433-6.139907 14.326449-11.597602 20.466356-6.822119 4.775483-13.644237 8.186542-21.830779 10.91539-3.411059 1.364424-5.457695 4.775483-4.093271 8.868754 0.682212 2.046636 2.046636 3.411059 4.093271 4.093271 7.50433 2.046636 15.008661 5.457695 21.148568 10.233178 4.775483 6.139907 8.868754 12.962025 11.597601 20.466356 2.046636 4.093271 6.139907 5.457695 10.233178 3.411059 1.364424-0.682212 2.728847-2.046636 3.411059-3.411059 2.046636-6.822119 6.139907-13.644237 10.233178-19.101932 6.822119-5.457695 15.008661-8.868754 23.195203-11.597602 3.411059-0.682212 6.139907-4.093271 5.457695-8.186542 0-3.411059-2.046636-5.457695-4.775483-5.457695zM95.50966 649.46569c-8.868754-2.728847-17.737508-6.822119-25.241839-12.962026-5.457695-6.822119-9.550966-14.326449-12.279813-22.512991-2.046636-4.093271-6.822119-6.139907-10.91539-4.093271-2.046636 0.682212-3.411059 2.728847-4.093271 4.093271-2.728847 8.186542-7.50433 16.373085-12.962025 23.195203-7.50433 5.457695-15.690873 9.550966-24.559627 12.279814-4.093271 1.364424-6.139907 5.457695-4.775483 9.550966 0.682212 2.046636 2.728847 4.093271 4.775483 4.775483 8.868754 2.728847 16.373085 6.822119 23.877415 11.597601 5.457695 6.822119 10.233178 15.008661 12.962025 23.195203 2.046636 4.093271 6.822119 6.139907 10.91539 4.093272 2.046636-0.682212 3.411059-2.728847 4.093271-4.093272 2.728847-8.186542 6.822119-15.008661 11.597602-21.830779 8.186542-6.139907 16.373085-10.233178 25.92405-13.644237 4.093271-1.364424 6.139907-5.457695 4.775483-9.550966 0-1.364424-1.364424-2.728847-4.093271-4.093271zM599.664224 324.050633c0-9.550966-7.50433-17.055296-17.055297-16.373085-9.550966 0-17.055296 7.50433-16.373084 17.055297 0 9.550966 7.50433 16.373085 17.055296 16.373084 8.868754 0 16.373085-7.50433 16.373085-17.055296zM1009.673551 433.20453c-15.008661 0-27.288474 12.279813-27.288474 27.288475 0 20.466356-1.364424 40.932712-4.093272 61.399067-2.046636 15.008661 8.186542 28.652898 23.195204 30.699534h4.093271c13.644237 0 25.241839-10.233178 27.288474-23.877415 2.728847-22.512991 4.775483-45.708195 4.775483-68.903398-0.682212-14.326449-12.962025-26.606262-27.970686-26.606263zM996.029314 577.833444c-14.326449-4.775483-30.017322 2.728847-34.792805 17.055297-4.775483 14.326449-10.91539 28.652898-17.737508 42.979347-6.822119 13.644237-1.364424 30.017322 12.279813 36.83944 3.411059 2.046636 7.50433 2.728847 11.597602 2.728848 10.233178 0 19.784144-6.139907 24.559627-15.690873 7.50433-15.690873 14.326449-32.063957 19.784144-49.119254 6.139907-14.326449-1.364424-29.33511-15.690873-34.792805z" fill="#6f9918" p-id="1651"></path><path d="M950.321119 731.331113c8.868754-12.279813 6.822119-29.33511-5.457695-38.203864-12.279813-8.868754-29.33511-6.822119-38.203864 5.457694-89.369753 118.022652-231.952032 161.001999-306.313124 161.001999-122.798135 0-330.872751-64.127915-330.872752-302.902065 0-283.117921 261.287142-286.528981 264.01599-286.528981 52.530313 0 202.616922 37.521652 202.616922 202.616922 0 141.217855-126.891406 156.908728-132.349101 157.590939-15.008661 1.364424-25.924051 15.008661-24.559627 30.017322s15.008661 25.924051 30.017322 24.559627c62.763491-6.822119 181.468354-59.352432 181.468354-212.167888 0-177.375083-150.086609-257.193871-257.19387-257.193871-88.687542 0-318.592938 61.399067-318.592938 341.10593 0 122.115923 48.437042 220.35443 139.853431 283.800133C450.942039 907.341772 558.731512 914.163891 600.346436 914.163891c102.331779 0 255.147235-57.305796 349.974683-182.832778z" fill="#6f9918" p-id="1652"></path></svg>